<?xml version="1.0" encoding="UTF-8" standalone="no"?>
<svg
   t="1702720410034"
   class="icon"
   viewBox="0 0 974.98197 961.58688"
   version="1.1"
   p-id="1483"
   width="190.42616"
   height="187.80995"
   id="svg4"
   sodipodi:docname="channel_r.svg"
   inkscape:version="1.3 (0e150ed6c4, 2023-07-21)"
   xmlns:inkscape="http://www.inkscape.org/namespaces/inkscape"
   xmlns:sodipodi="http://sodipodi.sourceforge.net/DTD/sodipodi-0.dtd"
   xmlns="http://www.w3.org/2000/svg"
   xmlns:svg="http://www.w3.org/2000/svg">
  <defs
     id="defs4" />
  <sodipodi:namedview
     id="namedview4"
     pagecolor="#ffffff"
     bordercolor="#000000"
     borderopacity="0.25"
     inkscape:showpageshadow="2"
     inkscape:pageopacity="0.0"
     inkscape:pagecheckerboard="0"
     inkscape:deskcolor="#d1d1d1"
     showguides="true"
     inkscape:zoom="1.949847"
     inkscape:cx="71.287646"
     inkscape:cy="42.311013"
     inkscape:window-width="2560"
     inkscape:window-height="1334"
     inkscape:window-x="-11"
     inkscape:window-y="302"
     inkscape:window-maximized="1"
     inkscape:current-layer="svg4">
    <sodipodi:guide
       position="393.56276,807.52252"
       orientation="0,-1"
       id="guide5"
       inkscape:locked="false" />
    <sodipodi:guide
       position="237.09782,293.38473"
       orientation="0,-1"
       id="guide6"
       inkscape:locked="false" />
    <sodipodi:guide
       position="749.13804,367.5649"
       orientation="0,-1"
       id="guide7"
       inkscape:locked="false" />
    <sodipodi:guide
       position="393.56276,768.99488"
       orientation="1,0"
       id="guide8"
       inkscape:locked="false" />
    <sodipodi:guide
       position="238.41074,294.04119"
       orientation="1,0"
       id="guide9"
       inkscape:locked="false" />
    <sodipodi:guide
       position="750.45094,375.44244"
       orientation="1,0"
       id="guide10"
       inkscape:locked="false" />
  </sodipodi:namedview>
  <path
     d="m 200.88964,194.07552 a 192.52387,193.96724 0 1 0 385.04768,0 192.52387,193.96724 0 1 0 -385.04768,0 z"
     fill="#d81e06"
     p-id="1486"
     id="path3-4"
     style="fill:#d81e06;fill-opacity:0.683729;stroke-width:2.60223" />
  <path
     d="m 276.75149,193.91179 a 116.84694,117.72296 0 1 0 233.69383,0 116.84694,117.72296 0 1 0 -233.69383,0 z"
     fill="#d81e06"
     p-id="1486"
     id="path3"
     style="stroke-width:1.57936" />
  <path
     d="m 589.93422,681.91675 a 192.52388,193.96725 0 1 0 385.0477,0 192.52388,193.96725 0 1 0 -385.0477,0 z"
     fill="#d81e06"
     p-id="1486"
     id="path3-4-0"
     style="fill:#979797;fill-opacity:0.843137;stroke-width:2.60223" />
  <path
     d="m 665.79602,681.75302 a 116.84695,117.72297 0 1 0 233.6939,0 116.84695,117.72297 0 1 0 -233.6939,0 z"
     fill="#d81e06"
     p-id="1486"
     id="path3-8"
     style="fill:#4a4a4a;fill-opacity:1;stroke-width:1.57936" />
  <path
     d="m 9.9999999e-6,767.55713 a 192.52387,193.96724 0 1 0 385.0477200000001,0 192.52387,193.96724 0 1 0 -385.0477200000001,0 z"
     fill="#d81e06"
     p-id="1486"
     id="path3-4-0-4"
     style="fill:#979797;fill-opacity:0.841864;stroke-width:2.60223" />
  <path
     d="m 75.86186,767.3934 a 116.84694,117.72298 0 1 0 233.69387,0 116.84694,117.72298 0 1 0 -233.69387,0 z"
     fill="#d81e06"
     p-id="1486"
     id="path3-8-5"
     style="fill:#4a4a4a;fill-opacity:1;stroke-width:1.57936" />
</svg>
