<svg xmlns="http://www.w3.org/2000/svg" width="14" height="16" fill="none">
    <path fill="red" fill-rule="evenodd"
        d="M7 0h-.094c-.44 0-.826 0-1.183.087a3 3 0 0 0-1.817 1.31c-.197.311-.319.677-.458 1.095L3.28 3H0v2h14V3h-3.28l-.168-.508c-.14-.418-.26-.784-.458-1.095A3 3 0 0 0 8.277.087C7.92 0 7.535 0 7.094 0H7Zm1.612 3c-.127-.376-.166-.468-.208-.534a1 1 0 0 0-.606-.437C7.708 2.007 7.588 2 7 2c-.588 0-.709.007-.798.03a1 1 0 0 0-.606.436c-.042.066-.08.158-.208.534h3.224Z"
        clip-rule="evenodd"></path>
    <path fill="red"
        d="m2.993 6.383.585 4.968c.102.866.169 1.422.27 1.829.095.38.19.5.266.567.076.068.206.148.594.198.417.053.976.055 1.849.055h.886c.873 0 1.432-.002 1.849-.055.388-.05.518-.13.594-.198.076-.067.171-.188.266-.567.101-.407.168-.963.27-1.83l.585-4.967 1.986.234-.591 5.028c-.093.789-.174 1.473-.31 2.019-.146.587-.385 1.14-.877 1.578-.492.438-1.07.61-1.67.687C8.987 16 8.298 16 7.504 16H6.496c-.794 0-1.483 0-2.041-.071-.6-.077-1.178-.25-1.67-.687-.492-.438-.731-.99-.877-1.578-.136-.546-.217-1.23-.31-2.02l-.591-5.027 1.986-.234Z">
    </path>
</svg>