<?xml version="1.0" encoding="utf-8"?>
<!-- Generator: Adobe Illustrator 28.3.0, SVG Export Plug-In . SVG Version: 6.00 Build 0)  -->
<svg version="1.1"
	 id="svg1" xmlns:inkscape="http://www.inkscape.org/namespaces/inkscape" xmlns:sodipodi="http://sodipodi.sourceforge.net/DTD/sodipodi-0.dtd" xmlns:svg="http://www.w3.org/2000/svg" inkscape:version="1.3 (0e150ed6c4, 2023-07-21)" sodipodi:docname="logo.svg"
	 xmlns="http://www.w3.org/2000/svg" xmlns:xlink="http://www.w3.org/1999/xlink" x="0px" y="0px" viewBox="0 0 209.1 223.7"
	 style="enable-background:new 0 0 209.1 223.7;" xml:space="preserve">
<style type="text/css">
	.st0{fill:#EE81B5;}
	.st1{fill:#E03989;}
	.st2{fill:#CCA4E3;}
	.st3{fill:#A5529F;}
	.st4{fill:#2E4E7E;}
	.st5{fill:#5075B9;}
</style>
<sodipodi:namedview  bordercolor="#000000" borderopacity="0.25" id="namedview1" inkscape:current-layer="layer1" inkscape:cx="166.95193" inkscape:cy="6.8363936" inkscape:deskcolor="#d1d1d1" inkscape:document-units="mm" inkscape:pagecheckerboard="0" inkscape:pageopacity="0.0" inkscape:showpageshadow="2" inkscape:window-height="1334" inkscape:window-maximized="1" inkscape:window-width="2560" inkscape:window-x="-11" inkscape:window-y="296" inkscape:zoom="1.3896216" pagecolor="#ffffff">
	</sodipodi:namedview>
<g id="layer1" transform="translate(-72.337201,-167.31801)" inkscape:groupmode="layer" inkscape:label="鍥惧眰 1">
	
		<path id="path218518-6-4" inkscape:transform-center-x="-2.2251556" inkscape:transform-center-y="13.862198" sodipodi:nodetypes="ssssccsss" class="st0" d="
		M73.4,241.7c-0.9,0-1.3-0.9-0.9-1.7c0.4-1,30.5-65.7,33.6-72.2c0.1-0.3,0.5-0.2,0.5-0.1c0.1,0.1,31.4,23.3,36.5,30.9l10,43.2
		c0.3,0-29.8,0.3-34.7,0.1C113.7,241.6,94.5,241.9,73.4,241.7L73.4,241.7z"/>
	
		<path id="path218518-6-4-8" inkscape:transform-center-x="-8.8980835" inkscape:transform-center-y="-2.8000324" sodipodi:nodetypes="ssssccsss" class="st1" d="
		M186.5,168.9c0.4-0.8-0.2-1.5-1.1-1.6c-1.1,0-71.7-0.1-78.9,0c-0.3,0-0.4,0.4-0.4,0.4c0.1,0.2,7.8,38.5,12.5,46.4l34.6,27.5
		c-0.1,0.3,12.7-27.1,14.6-31.6C169.6,205.7,177.8,188.3,186.5,168.9L186.5,168.9z"/>
	
		<path id="path218518-6-4-3" inkscape:transform-center-x="2.2854322" inkscape:transform-center-y="-13.855386" sodipodi:nodetypes="ssssccsss" class="st2" d="
		M266.4,167.5c0.9,0,1.3,0.8,1,1.7c-0.4,1-30.3,65.7-33.4,72.3c-0.1,0.3-0.5,0.2-0.5,0.1c-0.1-0.1-31.4-23.2-36.6-30.8l-10.1-43.1
		c-0.3,0,29.8-0.3,34.7-0.2C226.2,167.6,245.3,167.3,266.4,167.5L266.4,167.5z"/>
	
		<path id="path218518-6-4-8-1" inkscape:transform-center-x="8.8627697" inkscape:transform-center-y="2.8316353" sodipodi:nodetypes="ssssccsss" class="st3" d="
		M153.5,240.5c-0.4,0.8,0.2,1.5,1.1,1.6c1.1,0,71.7-0.1,78.9-0.2c0.3,0,0.4-0.4,0.4-0.4c-0.1-0.2-7.9-38.5-12.6-46.4l-34.6-27.4
		c0.1-0.3-12.6,27.1-14.5,31.6C170.3,203.7,162.1,221.1,153.5,240.5L153.5,240.5z"/>
	
		<path id="path218518-6-4-3-8" inkscape:transform-center-x="-2.2628138" inkscape:transform-center-y="13.857858" sodipodi:nodetypes="ssssccsss" class="st4" d="
		M121.1,316.3c-0.9,0-1.3-0.9-1-1.7c0.4-1,30.4-65.7,33.5-72.2c0.1-0.3,0.5-0.2,0.5-0.1c0.1,0.1,31.4,23.3,36.5,30.8l10.1,43.1
		c0.3,0-29.8,0.3-34.7,0.2C161.4,316.2,142.2,316.4,121.1,316.3L121.1,316.3z"/>
	
		<path id="path218518-6-4-8-1-2" inkscape:transform-center-x="-8.8760268" inkscape:transform-center-y="-2.8181124" sodipodi:nodetypes="ssssccsss" class="st5" d="
		M234.1,243.4c0.4-0.8-0.2-1.5-1.1-1.6c-1.1,0-71.7,0-78.9,0.1c-0.3,0-0.4,0.4-0.4,0.4c0.1,0.2,7.9,38.5,12.5,46.4l34.6,27.4
		c-0.1,0.3,12.7-27.1,14.6-31.6C217.3,280.2,225.5,262.8,234.1,243.4L234.1,243.4z"/>
	
		<path id="path218518-6-4-3-8-3" inkscape:transform-center-x="2.2418935" inkscape:transform-center-y="-13.860196" sodipodi:nodetypes="ssssccsss" class="st3" d="
		M199.8,316.3c0.9,0,1.3,0.9,0.9,1.7c-0.4,1-30.4,65.7-33.5,72.2c-0.1,0.3-0.5,0.2-0.5,0.1c-0.1-0.1-31.4-23.3-36.5-30.8l-10.1-43.2
		c-0.3,0,29.8-0.3,34.7-0.2C159.5,316.3,178.7,316.1,199.8,316.3z"/>
	
		<path id="path218518-6-4-8-1-2-0" inkscape:transform-center-x="8.8882819" inkscape:transform-center-y="2.8066646" sodipodi:nodetypes="ssssccsss" class="st2" d="
		M86.8,389.1c-0.4,0.8,0.2,1.5,1.1,1.6c1.1,0,71.7,0,78.9,0c0.3,0,0.4-0.4,0.4-0.4c-0.1-0.2-7.8-38.5-12.5-46.4L120,316.4
		c0.1-0.3-12.7,27.1-14.6,31.6C103.6,352.3,95.4,369.7,86.8,389.1L86.8,389.1z"/>
	
		<path id="path218518-6-4-3-8-3-4" inkscape:transform-center-x="-2.2628138" inkscape:transform-center-y="13.857858" sodipodi:nodetypes="ssssccsss" class="st1" d="
		M168.3,390.9c-0.9,0-1.3-0.9-1-1.7c0.4-1,30.4-65.7,33.5-72.2c0.1-0.3,0.5-0.2,0.5-0.1c0.1,0.1,31.4,23.3,36.5,30.8l10.1,43.1
		c0.3,0-29.8,0.3-34.7,0.2C208.6,390.8,189.5,391.1,168.3,390.9L168.3,390.9z"/>
	
		<path id="path218518-6-4-8-1-2-0-5" inkscape:transform-center-x="-8.8760268" inkscape:transform-center-y="-2.8181124" sodipodi:nodetypes="ssssccsss" class="st0" d="
		M281.3,318c0.4-0.8-0.2-1.5-1.1-1.6c-1.1,0-71.7,0-78.9,0.1c-0.3,0-0.4,0.4-0.4,0.4c0.1,0.2,7.9,38.5,12.5,46.4l34.6,27.4
		c-0.1,0.3,12.7-27.1,14.6-31.6C264.5,354.8,272.7,337.4,281.3,318L281.3,318z"/>
</g>
</svg>
