<svg t="1702798577488" class="icon" viewBox="0 0 1024 1024" version="1.1" xmlns="http://www.w3.org/2000/svg" p-id="2700"
    width="200" height="200">
    <path
        d="M756 436c-67 0-124.2 47.6-137.2 112.2-20.6-1-36.8-5.4-78.4-21.6-61-23.8-143.6-66.4-223-191.6 54.2-20.2 90.8-72 90.8-131 0-77.2-62.8-140-140-140s-140 62.8-140 140c0 34 12.4 66.6 34.6 92.2 19.8 22.6 46.2 38.2 75.4 44.6v342.6c-29 6.4-55.6 22-75.4 44.6C140.4 753.4 128 786 128 820c0 77.2 62.8 140 140 140s140-62.8 140-140c0-34.8-12.8-68-36-93.8-20.6-22.8-48-38.2-78-43.8V400.6c81.6 113.6 164 154 226 178.2 50.4 19.6 74.2 24.6 99 25.6 13.2 64.4 70.4 111.6 137 111.6 77.2 0 140-62.8 140-140s-62.8-140-140-140zM352 820c0 46.4-37.6 84-84 84s-84-37.6-84-84 37.6-84 84-84 84 37.6 84 84z m-84-532c-46.4 0-84-37.6-84-84s37.6-84 84-84 84 37.6 84 84-37.6 84-84 84z m488 372c-46.4 0-84-37.6-84-84s37.6-84 84-84 84 37.6 84 84-37.6 84-84 84z"
        p-id="2701" fill="#0064ff"></path>
</svg>