<?xml version="1.0" encoding="UTF-8" standalone="no"?>
<svg
   t="1762069986679"
   class="icon"
   viewBox="0 0 1095 1024"
   version="1.1"
   p-id="22481"
   width="213.8671875"
   height="200"
   id="svg2"
   sodipodi:docname="polygon.svg"
   xmlns:inkscape="http://www.inkscape.org/namespaces/inkscape"
   xmlns:sodipodi="http://sodipodi.sourceforge.net/DTD/sodipodi-0.dtd"
   xmlns="http://www.w3.org/2000/svg"
   xmlns:svg="http://www.w3.org/2000/svg">
  <defs
     id="defs2" />
  <sodipodi:namedview
     id="namedview2"
     pagecolor="#ffffff"
     bordercolor="#000000"
     borderopacity="0.25"
     inkscape:showpageshadow="2"
     inkscape:pageopacity="0.0"
     inkscape:pagecheckerboard="0"
     inkscape:deskcolor="#d1d1d1"
     showgrid="false"
     inkscape:zoom="3.0452378"
     inkscape:cx="90.469126"
     inkscape:cy="94.738086"
     inkscape:window-width="1860"
     inkscape:window-height="1027"
     inkscape:window-maximized="1"
     inkscape:current-layer="svg2" />
  <path
     id="path1"
     style="fill:#0064ff;fill-opacity:1"
     d="M 552.96 0 A 81.92 81.92 0 0 0 472.74 98.51 L 130.7 343.78 A 81.92 81.92 0 0 0 81.92 327.68 A 81.921129 81.921129 0 0 0 81.06 491.52 L 207.61 875.98 A 81.92 81.92 0 0 0 256 1024 A 81.92 81.92 0 0 0 326.94 983.05 L 778.98 983.05 A 81.92 81.92 0 0 0 849.92 1024 A 81.92 81.92 0 0 0 898.31 875.98 L 1025.11 490.73 A 81.92 81.92 0 0 0 1013.76 327.68 A 81.92 81.92 0 0 0 970.22 340.21 L 633.19 98.49 A 81.92 81.92 0 0 0 552.96 0 z M 552.96 40.96 A 40.96 40.96 0 0 1 592.44 71.08 C 592.47295 71.200299 592.50812 71.319273 592.54 71.44 A 40.96 40.96 0 0 1 593.49 76.19 C 593.53102 76.482011 593.56517 76.776084 593.6 77.07 A 40.96 40.96 0 0 1 593.92 81.92 A 40.8576 40.8576 0 0 1 593.55 87.35 A 40.96 40.96 0 0 1 592.94 90.43 A 40.8576 40.8576 0 0 1 592.47 92.68 A 40.96 40.96 0 0 1 591.41 95.79 A 40.8576 40.8576 0 0 1 590.67 97.86 A 40.96 40.96 0 0 1 589.26 100.71 A 40.8576 40.8576 0 0 1 588.17 102.78 A 40.96 40.96 0 0 1 586.57 105.18 A 40.8576 40.8576 0 0 1 584.99 107.39 A 40.96 40.96 0 0 1 583.21 109.42 A 40.8576 40.8576 0 0 1 581.29 111.43 A 40.96 40.96 0 0 1 552.96 122.88 A 40.96 40.96 0 0 1 525.27 112.1 A 40.8576 40.8576 0 0 1 521.38 108 A 40.96 40.96 0 0 1 515.46 98.41 A 40.8576 40.8576 0 0 1 515.46 98.4 A 40.96 40.96 0 0 1 513.55 93.09 A 40.8576 40.8576 0 0 1 512 81.92 A 40.96 40.96 0 0 1 512.32 77.09 C 512.35577 76.786565 512.38764 76.481392 512.43 76.18 A 40.96 40.96 0 0 1 513.38 71.4 C 513.40167 71.318324 513.43784 71.241469 513.46 71.16 A 40.96 40.96 0 0 1 552.96 40.96 z M 491.69 136.29 A 81.92 81.92 0 0 0 552.96 163.84 A 81.92 81.92 0 0 0 614.23 136.3 L 941.08 371.81 A 81.92 81.92 0 0 0 981.24 484.79 L 858.13 860.57 A 81.92 81.92 0 0 0 849.92 860.16 A 81.92 81.92 0 0 0 768 942.08 L 337.92 942.08 A 81.92 81.92 0 0 0 256 860.16 A 81.92 81.92 0 0 0 247.79 860.57 L 123.22 480.35 A 81.92 81.92 0 0 0 157.2 377.3 L 491.69 136.29 z M 81.92 368.64 A 40.96 40.96 0 0 1 98 371.98 A 41.02144 41.02144 0 0 1 98.74 372.26 A 40.96 40.96 0 0 1 102.83 374.45 A 41.02144 41.02144 0 0 1 103.81 374.98 A 40.96 40.96 0 0 1 108.41 378.36 A 40.96 40.96 0 0 1 112.53 382.38 A 40.96 40.96 0 0 1 116.04 386.94 A 40.96 40.96 0 0 1 118.86 391.92 A 40.96 40.96 0 0 1 118.88 391.95 A 41.02144 41.02144 0 0 1 119.17 392.7 A 40.96 40.96 0 0 1 120.96 397.21 A 41.02144 41.02144 0 0 1 121.27 398.47 A 40.96 40.96 0 0 1 109.85 439.56 L 109.85 439.55 A 40.81664 40.81664 0 0 1 105.9 442.81 A 40.96 40.96 0 0 1 81.92 450.56 A 40.96 40.96 0 0 1 76.87 450.22 C 76.454105 450.16866 76.041928 450.0937 75.63 450.03 A 40.96 40.96 0 0 1 71.26 449.12 C 71.091531 449.07468 70.9176 449.0474 70.75 449 A 40.96 40.96 0 0 1 81.92 368.64 z M 1013.76 368.64 A 40.96 40.96 0 0 1 1054.12 402.59 A 40.96 40.96 0 0 1 1013.76 450.56 A 40.96 40.96 0 0 1 1008.28 450.19 C 1007.9597 450.14711 1007.6579 450.05025 1007.34 450 A 40.96 40.96 0 0 1 1002.98 449.1 C 1002.4792 448.96349 1002.003 448.76482 1001.51 448.61 A 40.96 40.96 0 0 1 997.96 447.35 C 997.36038 447.09883 996.78478 446.80836 996.2 446.53 A 40.96 40.96 0 0 1 975.11 396.05 A 40.99072 40.99072 0 0 1 975.74 394.55 A 40.96 40.96 0 0 1 977.26 391.06 A 40.99072 40.99072 0 0 1 978.17 389.48 A 40.96 40.96 0 0 1 980.06 386.37 A 40.99072 40.99072 0 0 1 981.34 384.7 A 40.96 40.96 0 0 1 983.34 382.23 A 40.99072 40.99072 0 0 1 985.04 380.5 A 40.96 40.96 0 0 1 987.31 378.39 A 40.99072 40.99072 0 0 1 989.12 376.98 A 40.96 40.96 0 0 1 991.59 375.23 A 40.99072 40.99072 0 0 1 993.82 373.91 A 40.96 40.96 0 0 1 996.27 372.64 A 40.99072 40.99072 0 0 1 998.68 371.59 A 40.96 40.96 0 0 1 1001.4 370.62 A 40.99072 40.99072 0 0 1 1003.74 369.95 A 40.96 40.96 0 0 1 1006.75 369.32 A 40.99072 40.99072 0 0 1 1009.06 368.96 A 40.96 40.96 0 0 1 1013.76 368.64 z M 255.77 901.14 A 40.91904 40.91904 0 0 1 259.95 901.38 A 40.96 40.96 0 0 1 296.96 942.08 A 40.96 40.96 0 0 1 296.58 947.6 A 40.96 40.96 0 0 1 296.13 949.84 A 40.96 40.96 0 0 1 295.44 953.02 A 40.96 40.96 0 0 1 294.6 955.5 A 40.96 40.96 0 0 1 293.61 958.22 A 40.96 40.96 0 0 1 292.34 960.79 A 40.96 40.96 0 0 1 291.09 963.13 A 40.96 40.96 0 0 1 289.45 965.58 A 40.96 40.96 0 0 1 287.93 967.66 A 40.96 40.96 0 0 1 285.9 969.97 A 40.96 40.96 0 0 1 284.2 971.71 A 40.96 40.96 0 0 1 281.92 973.71 A 40.96 40.96 0 0 1 279.85 975.3 A 40.96 40.96 0 0 1 277.43 976.92 A 40.96 40.96 0 0 1 275.19 978.19 A 40.96 40.96 0 0 1 272.46 979.53 A 40.96 40.96 0 0 1 270.23 980.41 A 40.96 40.96 0 0 1 267.21 981.43 A 40.96 40.96 0 0 1 265.03 981.95 A 40.96 40.96 0 0 1 261.8 982.6 A 40.96 40.96 0 0 1 259.55 982.81 A 40.96 40.96 0 0 1 256 983.04 A 40.96 40.96 0 0 1 245.34 981.6 A 40.96 40.96 0 0 1 244.27 981.28 A 40.96 40.96 0 0 1 222.28 918.89 A 40.91904 40.91904 0 0 1 223.95 916.72 A 40.96 40.96 0 0 1 225.73 914.52 A 40.91904 40.91904 0 0 1 227.66 912.63 A 40.96 40.96 0 0 1 229.89 910.55 A 40.91904 40.91904 0 0 1 231.68 909.23 A 40.96 40.96 0 0 1 234.45 907.27 A 40.91904 40.91904 0 0 1 236.47 906.18 A 40.96 40.96 0 0 1 239.42 904.65 A 40.91904 40.91904 0 0 1 241.67 903.81 A 40.96 40.96 0 0 1 244.69 902.73 A 40.91904 40.91904 0 0 1 247.27 902.16 A 40.96 40.96 0 0 1 250.16 901.56 A 40.91904 40.91904 0 0 1 252.98 901.33 A 40.96 40.96 0 0 1 255.77 901.14 z M 850.15 901.14 A 40.96 40.96 0 0 1 852.94 901.33 A 40.91904 40.91904 0 0 1 855.76 901.56 A 40.96 40.96 0 0 1 858.65 902.16 A 40.91904 40.91904 0 0 1 861.23 902.73 A 40.96 40.96 0 0 1 864.25 903.81 A 40.91904 40.91904 0 0 1 866.5 904.65 A 40.96 40.96 0 0 1 869.45 906.18 A 40.91904 40.91904 0 0 1 871.47 907.27 A 40.96 40.96 0 0 1 874.24 909.23 A 40.91904 40.91904 0 0 1 876.03 910.55 A 40.96 40.96 0 0 1 878.26 912.63 A 40.91904 40.91904 0 0 1 880.19 914.52 A 40.96 40.96 0 0 1 881.97 916.72 A 40.91904 40.91904 0 0 1 883.64 918.89 A 40.96 40.96 0 0 1 861.88 981.2 A 40.96 40.96 0 0 1 860.42 981.63 A 40.96 40.96 0 0 1 856.29 982.5 A 40.96 40.96 0 0 1 855.27 982.68 A 40.96 40.96 0 0 1 849.92 983.04 A 40.96 40.96 0 0 1 844.36 982.66 A 40.96 40.96 0 0 1 844.34 982.66 A 40.96 40.96 0 0 1 843.97 982.58 A 40.96 40.96 0 0 1 838.99 981.55 A 40.96 40.96 0 0 1 837.61 981.07 A 40.96 40.96 0 0 1 833.83 979.73 A 40.96 40.96 0 0 1 832.22 978.94 A 40.96 40.96 0 0 1 828.92 977.23 A 40.96 40.96 0 0 1 827.43 976.22 A 40.96 40.96 0 0 1 824.41 974.09 A 40.96 40.96 0 0 1 822.83 972.7 A 40.96 40.96 0 0 1 820.47 970.49 A 40.96 40.96 0 0 1 818.86 968.66 A 40.96 40.96 0 0 1 816.89 966.23 A 40.96 40.96 0 0 1 815.67 964.41 A 40.96 40.96 0 0 1 813.96 961.59 A 40.96 40.96 0 0 1 812.94 959.52 A 40.96 40.96 0 0 1 811.71 956.71 A 40.96 40.96 0 0 1 810.9 954.29 A 40.96 40.96 0 0 1 810.11 951.46 A 40.96 40.96 0 0 1 809.63 949.04 A 40.96 40.96 0 0 1 809.22 946.04 A 40.96 40.96 0 0 1 809.06 943.61 A 40.96 40.96 0 0 1 847.04 901.32 A 40.91904 40.91904 0 0 1 850.15 901.14 z " />
  <path
     style="fill:#0064ff;fill-opacity:0.47544014;stroke:none;stroke-width:0;stroke-linecap:round;paint-order:stroke fill markers;stroke-dasharray:none"
     d="m 66.004698,182.47557 c 0,-3.03583 -1.954301,-7.23674 -4.595155,-9.87759 -2.906194,-2.90619 -5.908257,-4.26125 -10.156763,-4.58453 L 48.48679,167.80299 36.387138,130.86006 24.287485,93.917133 25.03272,93.444217 c 1.739043,-1.103572 4.480443,-4.27318 5.43454,-6.283417 1.811192,-3.816093 2.17997,-8.539829 0.938059,-12.015742 l -0.48872,-1.36785 32.567508,-23.470242 32.567506,-23.470243 1.313526,1.202876 c 2.962911,2.713322 6.282131,3.979632 10.415751,3.973708 4.34041,-0.0062 8.05476,-1.34029 10.87658,-3.906504 l 1.366,-1.242261 31.36044,22.627 c 17.24824,12.44485 31.53248,22.729104 31.74274,22.853896 0.27787,0.164913 0.16806,0.854803 -0.402,2.525563 -2.39814,7.028613 0.69429,15.386742 7.0168,18.964811 1.11099,0.628739 1.68102,1.147907 1.57207,1.431816 -0.094,0.244976 -4.32208,13.119122 -9.39572,28.609232 -5.07364,15.4901 -10.41124,31.74728 -11.86132,36.12707 l -2.63651,7.96325 h -2.07257 c -2.72258,0 -5.86628,0.99994 -8.3427,2.65363 -4.07522,2.72133 -6.20438,6.28506 -7.0961,11.87725 l -0.19636,1.23144 H 107.85847 66.004698 Z"
     id="path2"
     transform="scale(5.12)" />
</svg>
