<svg xmlns="http://www.w3.org/2000/svg" fill="none" viewBox="0 0 32 32">
    <path fill="#0064ff" fill-rule="evenodd"
        d="M21 3.5a5.5 5.5 0 1 0 0 11 5.5 5.5 0 0 0 0-11ZM3.5 16a5.5 5.5 0 1 1 11 0 5.5 5.5 0 0 1-11 0Zm12 7a5.5 5.5 0 1 1 11 0 5.5 5.5 0 0 1-11 0Z"
        clip-rule="evenodd" opacity="0.4"></path>
    <g filter="url(#keypoints-tool_svg__a)">
        <path fill="#0064ff" fill-rule="evenodd"
            d="M21 6.5a2.5 2.5 0 1 0 0 5 2.5 2.5 0 0 0 0-5ZM6.5 16a2.5 2.5 0 1 1 5 0 2.5 2.5 0 0 1-5 0Zm12 7a2.5 2.5 0 1 1 5 0 2.5 2.5 0 0 1-5 0Z"
            clip-rule="evenodd"></path>
    </g>
</svg>