<?xml version="1.0" encoding="UTF-8" standalone="no"?>
<svg
   t="1702199255103"
   class="icon"
   viewBox="0 0 1024 1024"
   version="1.1"
   p-id="4410"
   width="200"
   height="200"
   id="svg2"
   sodipodi:docname="zlabel.svg"
   inkscape:version="1.3 (0e150ed6c4, 2023-07-21)"
   inkscape:export-filename="zlabel.png"
   inkscape:export-xdpi="96"
   inkscape:export-ydpi="96"
   xmlns:inkscape="http://www.inkscape.org/namespaces/inkscape"
   xmlns:sodipodi="http://sodipodi.sourceforge.net/DTD/sodipodi-0.dtd"
   xmlns="http://www.w3.org/2000/svg"
   xmlns:svg="http://www.w3.org/2000/svg">
  <defs
     id="defs2">
    <rect
       x="36.264733"
       y="57.298277"
       width="219.91994"
       height="161.86521"
       id="rect8" />
  </defs>
  <sodipodi:namedview
     id="namedview2"
     pagecolor="#ffffff"
     bordercolor="#000000"
     borderopacity="0.25"
     inkscape:showpageshadow="2"
     inkscape:pageopacity="0.0"
     inkscape:pagecheckerboard="0"
     inkscape:deskcolor="#d1d1d1"
     showguides="true"
     inkscape:zoom="2.7575"
     inkscape:cx="-12.692656"
     inkscape:cy="75.24932"
     inkscape:window-width="2560"
     inkscape:window-height="1334"
     inkscape:window-x="-11"
     inkscape:window-y="302"
     inkscape:window-maximized="1"
     inkscape:current-layer="svg2">
    <sodipodi:guide
       position="898.66908,793.76247"
       orientation="0,-1"
       id="guide2"
       inkscape:locked="false" />
    <sodipodi:guide
       position="928.37715,260.87398"
       orientation="0,-1"
       id="guide3"
       inkscape:locked="false" />
    <sodipodi:guide
       position="828.11242,563.52493"
       orientation="1,0"
       id="guide4"
       inkscape:locked="false" />
    <sodipodi:guide
       position="55.14279,991.83337"
       orientation="1,0"
       id="guide5"
       inkscape:locked="false" />
    <sodipodi:guide
       position="940.44606,61.737079"
       orientation="0,-1"
       id="guide6"
       inkscape:locked="false" />
    <sodipodi:guide
       position="966.44062,1046.2811"
       orientation="1,0"
       id="guide7"
       inkscape:locked="false" />
    <sodipodi:guide
       position="87.267453,966.44062"
       orientation="0,-1"
       id="guide8"
       inkscape:locked="false" />
  </sodipodi:namedview>
  <path
     d="M 875.30115,1024 H 212.29268 C 94.907317,1024 0.00311947,1023.7872 0,906.40179 L -0.01991054,157.1698 C -0.02303001,39.784438 13.210127,0 130.59549,0 H 898.51058 C 1015.8959,0 1024,54.058722 1024,171.44409 V 863.69644 C 1024,981.0818 992.68652,1024 875.30115,1024 Z M 146.61,57.816952 C 64.6358,57.690668 56.716437,90.048405 56.577425,156.24143 l -1.575177,750.04431 c -0.142678,67.93842 67.072462,54.39809 156.090142,54.59554 l 663.74457,1.47221 c 102.39975,0.22713 91.28567,-15.75206 91.23004,-98.65705 L 965.60281,171.90827 C 965.5624,111.6753 969.34067,59.084394 899.90315,58.977424 Z"
     p-id="4411"
     fill="#1296db"
     id="path1"
     sodipodi:nodetypes="ssssssssssssssssss"
     style="fill:#1273a6;fill-opacity:1" />
  <path
     d="m 180.36506,899.71624 -1.3129,-148.82379 233.96651,-286.96434 187.0056,-229.36598 -419.81621,-0.49235 -0.071,-136.566453 h 650.18855 l -1.85676,136.734383 -452.57093,528.44792 452.83711,-0.23209 -0.9171,136.82183 z"
     p-id="4412"
     fill="#1296db"
     id="path2"
     style="fill:#1273a6;fill-opacity:1;stroke-width:0.931233"
     sodipodi:nodetypes="cccccccccccc" />
</svg>
