<?xml version="1.0" encoding="UTF-8" standalone="no"?>
<svg
   t="1765075901095"
   class="icon"
   viewBox="0 0 163.84001 163.84"
   version="1.1"
   p-id="8103"
   width="32"
   height="32"
   id="svg1"
   sodipodi:docname="next.svg"
   inkscape:version="1.3.2 (091e20e, 2023-11-25, custom)"
   xmlns:inkscape="http://www.inkscape.org/namespaces/inkscape"
   xmlns:sodipodi="http://sodipodi.sourceforge.net/DTD/sodipodi-0.dtd"
   xmlns="http://www.w3.org/2000/svg"
   xmlns:svg="http://www.w3.org/2000/svg">
  <defs
     id="defs1" />
  <sodipodi:namedview
     id="namedview1"
     pagecolor="#ffffff"
     bordercolor="#000000"
     borderopacity="0.25"
     inkscape:showpageshadow="2"
     inkscape:pageopacity="0.0"
     inkscape:pagecheckerboard="0"
     inkscape:deskcolor="#d1d1d1"
     inkscape:zoom="16.28"
     inkscape:cx="15.970516"
     inkscape:cy="14.434889"
     inkscape:window-width="1920"
     inkscape:window-height="1010"
     inkscape:window-x="-6"
     inkscape:window-y="135"
     inkscape:window-maximized="1"
     inkscape:current-layer="svg1" />
  <path
     d="M 37.517781,143.30038 110.67227,84.104337 c 0.47135,-0.381407 0.47135,-1.067957 0,-1.525657 L 37.329241,23.23008 c -1.13126,-0.91541 -1.79116,-2.21223 -1.79116,-3.50905 l 1e-5,-0.61027 c 0,-2.7462 2.73386,-4.95843 6.12763,-4.95843 h 0.75417 c 1.60261,0 3.20522,0.53399 4.33647,1.44939 l 80.036289,64.68845 c 2.07397,1.67824 2.07397,4.424437 0,6.102677 L 47.039181,150.92873 c -1.22553,0.99169 -2.92241,1.60196 -4.71356,1.60196 v 0 c -3.67658,0 -6.69326,-2.44107 -6.69326,-5.41614 v 0 c -0.0943,-1.3731 0.65989,-2.7462 1.88542,-3.81417 z"
     p-id="8104"
     fill="#0064ff"
     id="path1"
     style="stroke-width:0.150225" />
</svg>
